<?xml version="1.0" encoding="UTF-8"?>
<svg xmlns="http://www.w3.org/2000/svg" version="1.1" viewBox="0 0 300 300">
  <defs>
    <style>
      .cls-1 {
        fill: #fc4516;
      }

      .cls-2, .cls-3 {
        fill: none;
      }

      .cls-4 {
        fill: #060e21;
      }

      .cls-3 {
        stroke: #e36108;
        stroke-miterlimit: 12;
        stroke-width: 23.4px;
      }

      .cls-5 {
        fill: #030303;
      }

      .cls-6 {
        fill: #e36108;
      }
    </style>
  </defs>
  <!-- Generator: Adobe Illustrator 28.6.0, SVG Export Plug-In . SVG Version: 1.2.0 Build 709)  -->
  <g>
    <g id="Layer_1">
      <g id="Layer_1-2" data-name="Layer_1">
        <g id="ada67192-cd2a-4f61-9dc9-b2d4601d6c8a">
          <g id="Layer_1-2">
            <path class="cls-4" d="M260,300c22.1,0,40-17.9,40-40V40c0-22.1-17.9-40-40-40H40C17.9,0,0,17.9,0,40v220c0,22.1,17.9,40,40,40h220Z"/>
          </g>
        </g>
        <g>
          <path class="cls-1" d="M77.1,78.6c-1.3.7-2.5,1.4-3.8,2.1-6,3.3-12.3,6.7-18.8,10.2v6.2c3,0,5.7,0,8,.4,3,.4,5.4,1.1,7.2,2,2.7,1.4,4.1,3.5,4.1,6.2v29.3c0,0,0,2.1,0,2.1v16.7c0,0,0,2.1,0,2.1v16.7c0,0,0,2.1,0,2.1v16.7c0,0,0,2.1,0,2.1v18.7c0,6.4-.3,12-.7,16.7,0,.7,0,1.4-.2,2.1-.4,4.2-1,7.6-1.8,10.3-.8,2.6-1.8,4.8-3,6.4-.6.8-1.4,1.5-2.1,2.1-1.5,1.1-3.3,1.7-5.4,1.7h-7.4v6.6l5.9,3.3c3.1,1.7,6.8,3.4,11,5.1,1.2.5,2.3.9,3.6,1.4.6.2,1.2.4,1.8.7,4.9,1.7,9.1,2.6,12.3,2.6s2.3-.9,3.4-2.7c.4-.6.7-1.3,1.1-2.1.4-1,.9-2.1,1.3-3.3,1.2-3.5,2.3-8,3.3-13.4,0-.7.2-1.4.4-2.1.4-2.3.7-4.7,1.1-7.4.4-3,.7-6.1,1-9.3,0-.7,0-1.4.2-2.1.4-5.4.6-10.9.6-16.7v-18.8c0,0,0-2.1,0-2.1v-16.7c0,0,0-2.1,0-2.1v-16.7c0,0,0-2.1,0-2.1v-16.7c0,0,0-2.1,0-2.1v-16.7c0,0,0-2.1,0-2.1v-16.7c0,0,0-2.1,0-2.1v-4c0-4.9.5-9.1,1.6-12.7.2-.7.4-1.4.7-2.1h0c1.6-4,2.9-6.5,3.9-7.3s1.9-1.4,2.4-1.7l-3.6-7c-8.7,5.2-18,10.5-28.1,16.1h.2ZM89.1,191.1h-2.9v-16.7h2.8v16.7h0ZM88.9,172.3h-2.9v-16.7h2.8v16.7h0ZM85.6,116.1v-10.5c0-2.2-.5-4.3-1.2-6.2h4v16.7c-.9,0-1.8,0-2.8,0ZM88.6,118.1v16.7h-2.8v-16.7c.9,0,1.8,0,2.8,0ZM88.7,136.9v16.7h-2.8v-16.7h2.8ZM88.8,85.4c-.3,2.5-.4,5.1-.4,7.9v4h-4.8c-1.2-2.3-2.9-4.4-5.1-6.1,3.5-1.9,7-3.9,10.4-5.8h0ZM83.6,258.3c-1.4-.4-3.1-.9-5.1-1.7-.5-.2-1.1-.4-1.6-.6,1.6-1.7,3-3.9,4.3-6.6h4.6c-.8,4.1-1.6,6.9-2.2,8.9h0ZM87.5,238.4c-.4,3.4-.9,6.4-1.3,8.9h-4.1c.4-1,.7-2,1.1-3.1,1-3.6,1.8-8.1,2.3-13.6h2.9c-.2,2.7-.5,5.3-.8,7.8h0ZM88.5,228.6h-2.9c.4-4.8.6-10.4.7-16.7h2.9c0,5.8-.3,11.3-.7,16.7ZM89.2,209.8h-2.9v-16.6h2.8v15c0,.6,0,1.1,0,1.7h0Z"/>
          <path class="cls-1" d="M242.2,208.8v-16.7c-.1,0-.1-2.1-.1-2.1v-16.7c-.1,0-.1-2.1-.1-2.1v-16.7c-.1,0-.1-2.1-.1-2.1v-16.7c-.1,0-.1-2.1-.1-2.1v-16.7c-.1,0-.1-2.1-.1-2.1v-16.7c-.1,0-.1-2.1-.1-2.1v-2.5c0-5.2-.8-9.9-2.3-14.2-.2-.7-.5-1.4-.8-2.1-1.7-4-4.1-7.6-7.2-10.6-3.5-3.5-6.8-5.2-9.7-5.2s-4.5,2.2-13.1,6.6c-8.6,4.3-13,6.7-13.3,7-.7-3.2-2.8-6.3-6.2-9-3.4-2.9-5.7-4.3-7-4.2-.1,0-8.1,4.4-23.8,13.3v4.8h.2c7.1,1.4,10.6,6.2,10.7,14.1v21.3c.1,0,.1,2.1.1,2.1v16.7c.1,0,.1,2.1.1,2.1v16.7c.1,0,.1,2.1.1,2.1v16.7c.1,0,.1,2.1.1,2.1v16.7c.1,0,.1,2.1.1,2.1v15c-2.2.9-4.5,1.3-6.7,1.4-7.6,0-11.9-5.4-12.8-16.2,0-.7-.1-1.4-.1-2.1v-18.8c-.1,0-.1-16.7-.1-16.7-.1,0-.1-2.1-.1-2.1v-16.7c-.1,0-.1-2.1-.1-2.1v-16.7c-.1,0-.1-2.1-.1-2.1v-16.7c-.1,0-.1-2.1-.1-2.1v-16.7c-.1,0-.1-2.1-.1-2.1v-1.5c0-2.5-1.4-5.2-4.2-8.2s-5.8-5.1-9-6.4l-23.8,13.5v4.8h.2c7.1,1.4,10.6,6.2,10.7,14.1v21.3c0,0,0,2.1,0,2.1v16.7c0,0,0,2.1,0,2.1v16.7c0,0,0,2.1,0,2.1v16.7c0,0,0,2.1,0,2.1v16.7c0,0,0,2.1,0,2.1v11.7c0,1.6.3,3.3.7,5,.2.7.3,1.4.6,2.1,1,3.2,2.6,6.6,4.9,10.1,1.9,2.8,3.7,5,5.6,6.5,1.1.9,2.3,1.6,3.4,2,1.1.4,2.3.7,3.4.7s2.2-.2,3.7-.7c1.6-.5,3.4-1.2,5.6-2.1,5.2-2.3,12.3-5.9,21.1-11,2.5,5,5.4,8.6,8.6,10.8,1.3.9,2.7,1.6,4.2,2,1.4.4,2.9.7,4.4.6,1,0,2.5-.2,4.3-.7,1.9-.5,4.3-1.2,7.1-2.1,4.7-1.6,10.5-3.7,17.6-6.6,12.8-5.1,20.3-8.6,22.6-10.4.5-.4.8-.7.8-1v-1.1l-.2.2ZM134.6,94.5c0-5.4-1.3-10.2-3.6-14.2h6.4v16.7h-2.8v-2.5h0ZM134.6,99.1h2.9v16.7h-2.8v-16.7h0ZM134.7,117.8h2.9v16.7h-2.8v-16.7h0ZM134.8,136.6h2.9v16.7h-2.8v-16.7h0ZM135,155.3h2.9v16.7h-2.8v-16.7h0ZM135.1,174.1h2.9v14.2c.1.8.1,1.7.2,2.5h-3v-16.7h0ZM135.3,204.5v-11.7h3c.6,7.3,2.3,12.7,4.7,16.6h-6.6c-.7-1.9-1.1-3.5-1.1-5h0ZM142.6,219.1c-.6-.5-1.6-1.6-3.1-3.7-.9-1.3-1.6-2.6-2.2-3.8h7c1.5,2,3.1,3.6,4.8,4.8-3.5,1.7-5.5,2.4-6.6,2.7h.1ZM180.6,94.2c0-5.4-1.3-10.2-3.6-14.2h6.6v16.7h-3v-2.5ZM180.6,98.8h3.1v16.7h-3v-16.7h-.1ZM180.7,117.5h3.1v16.7h-3v-16.7h-.1ZM180.9,136.3h3.1v16.7h-3v-16.7h-.1ZM181,155h3.1v16.7h-3v-16.7h-.1ZM181.1,173.8h3.1v16.4c.1,0,.1.2.1.3h-3.2v-16.7h0ZM181.4,208.7v-16.1h3.1c.3,5.5,1.6,10.7,3.8,15.5.2.4.4.8.6,1.2h-7.2l-.3-.6h0ZM189.6,219c-2.6-.1-5.2-4.5-6.6-7.1l-.3-.6h7.3c1.7,2.7,3.7,4.7,5.7,6.1-4,1.3-5.6,1.6-6.2,1.6h.1ZM206.9,209h-.6c-3.1,0-5.6-2-7.5-6-1.5-3.3-2.4-6.9-2.7-10.6v-18.8c-.1,0-.1-2.1-.1-2.1v-16.7c-.1,0-.1-2.1-.1-2.1v-16.7c-.1,0-.1-2.1-.1-2.1v-16.7c-.1,0-.1-2.1-.1-2.1v-16.7c-.1,0-.1-2.1-.1-2.1v-13.9c6.8,0,11.7,1.4,14.8,4,2.3,1.9,3.8,5.1,4.4,9.8,0,.7.2,1.4.2,2.1,0,1.1.1,2.2.1,3.3v15.4c.1,0,.1,16.7.1,16.7.1,0,.1,2.1.1,2.1v16.7c.1,0,.1,2.1.1,2.1v16.7c.1,0,.1,2.1.1,2.1v16.7c.1,0,.1,2.1.1,2.1v14.7c-2.7,1.3-5.6,1.9-8.7,2h0ZM219.9,79.7h6.5c2.2,3.8,3.3,8.5,3.4,14.2v2.5h-3.3c-.7-7.2-2.9-12.7-6.5-16.6h0ZM226.7,101.8c0-1.2,0-2.3-.1-3.3h3.2v16.7h-3v-13.3h0ZM226.8,117.2h3.1v16.7h-3v-16.7h-.1ZM226.9,136h3.1v16.7h-3v-16.7h-.1ZM227,154.7h3.1v16.7h-3v-16.7h-.1ZM227.1,173.5h3.1v16.7h-3v-16.7h-.1ZM227.3,205v-12.8h3v11.4c-.8.4-1.8.9-3,1.4h0Z"/>
        </g>
        <g id="a62b8f00-4103-43e1-b31e-820a5469a5b5">
          <path class="cls-5" d="M-1278.1-17000.4" vector-effect="non-scaling-stroke"/>
        </g>
        <rect class="cls-2" x="55.6" y="45.8" width="188.6" height="208.4" transform="translate(-1 1.1) rotate(-.4)"/>
        <g id="_x32_1ae578b-6ff6-4288-acee-85a4d46fb689">
          <path class="cls-3" d="M-1278.1-17000.4"/>
        </g>
        <g id="_x38_39a42e0-28a7-4a38-b587-81f79068782b">
          <path class="cls-3" d="M-1278.1-17000.4"/>
        </g>
        <path class="cls-6" d="M826.5,1533.4c1-.8,1.8-1.4,2.4-1.7l-3.6-7c-14.8,8.9-31.7,18.3-50.7,28.4v6.1c12.9,0,19.4,2.8,19.4,8.6l.7,101c0,16.2-.8,27.7-2.7,34.4-1.9,6.7-5.4,10.1-10.6,10.1h-7.4v6.6l5.9,3.3c3.9,2.2,8.8,4.3,14.6,6.5,5.8,2.1,10.5,3.2,14.1,3.2s4-2.7,5.9-8.1c1.8-5.4,3.4-13,4.7-22.8,1.2-9.9,1.8-20.5,1.8-31.9l-.8-114.8c0-5.9.7-10.8,2.3-14.8s2.9-6.5,3.9-7.3h0v.2ZM807.7,1700.7c-1.3,10.5-2.8,16.5-3.9,19.9-1.4-.4-3.1-.9-5.1-1.7-.5-.2-1.1-.4-1.6-.6,2.5-2.7,4.7-6.5,6.2-11.8,2.2-7.9,3.3-20.2,3.2-37.7l-.7-101c0-5.8-2.6-10.8-7.1-14.4,3.5-1.9,7-3.9,10.4-5.8-.3,2.5-.4,5.1-.4,7.9l.8,114.8c0,10.8-.5,21-1.7,30.3h-.1Z"/>
        <path class="cls-6" d="M951.3,1529.2c-3.5-3.5-6.8-5.2-9.7-5.2s-4.5,2.2-13.1,6.6c-8.6,4.3-13,6.7-13.3,7-.7-3.2-2.8-6.2-6.2-9.1s-5.7-4.2-7.1-4.2-8.1,4.4-23.8,13.3v4.8c7.2,1.4,10.8,6.1,10.9,14.2l.8,113.3c-2.3.9-4.6,1.4-6.8,1.4-8.6,0-12.9-6.9-13-20.7l-.8-111.5c0-2.5-1.4-5.2-4.2-8.2s-5.8-5.1-9-6.4l-23.8,13.5v4.8c7.2,1.4,10.8,6.1,10.9,14.2l.7,110c0,5.2,2.1,11,6.2,17.2,4.1,6.1,8.2,9.2,12.4,9.2s14.3-4.6,30.4-13.8c4.6,9,10.3,13.5,17.2,13.5s13.5-3.2,29.1-9.4c15.6-6.2,23.4-10,23.4-11.3l-.8-116.1c0-11.2-3.5-20.2-10.3-26.9h0v-.2ZM862.8,1681.4c-.6-.5-1.7-1.6-3.1-3.7-2.8-4.2-4.2-8-4.2-10.9l-.7-110c0-6.2-1.6-11.5-4.5-15.7l5.5-3.1c.3.2.5.5.8.8.5.6.9,1,1.1,1.3l.7,110.5c0,15.8,5.3,23.9,11.1,28.1-3.5,1.7-5.6,2.4-6.6,2.7h0ZM909.8,1681.2c-2.6,0-5.2-4.5-6.6-7.1l-1.6-3.2-.8-114.4c0-6.1-1.6-11.5-4.5-15.7,2.3-1.3,4.1-2.3,5.6-3.1,1.5,1.2,1.9,2.1,2,2.3l.8,112.4c0,6.3,1.4,12.3,3.9,17.8,2.1,4.5,4.8,7.4,7.4,9.3-4,1.3-5.6,1.6-6.2,1.6h0ZM926.7,1671.3c-3.2,0-5.7-2-7.6-6s-2.8-8.3-2.8-13l-.7-107.4c6.9,0,11.8,1.4,14.9,4,3.1,2.5,4.7,7.6,4.7,15.2l.7,105.2c-2.9,1.3-6,2-9.2,2h0ZM947.5,1667.3l-.7-103.2c0-11.4-3-19.3-9-24.1-.2-.2-.5-.4-.8-.6,2.2-1.1,3.9-2,5.1-2.6.3.2.5.5.9.8,4.5,4.4,6.7,10.5,6.8,18.6l.7,109.7c-.9.4-1.9.9-3.1,1.4h0Z"/>
      </g>
    </g>
  </g>
</svg>