<svg xmlns="http://www.w3.org/2000/svg" xmlns:xlink="http://www.w3.org/1999/xlink" width="5000px" height="5000px" viewBox="0 0 5000 5000">
    <g id="58bf9d5e-3777-441a-be5a-19d9b114865b">
<rect style="stroke: rgb(193,193,193); stroke-width: 0; stroke-dasharray: none; stroke-linecap: butt; stroke-dashoffset: 0; stroke-linejoin: miter; stroke-miterlimit: 4; fill: rgb(255,255,255); fill-rule: nonzero; opacity: 1;" x="-2500" y="-2500" rx="0" ry="0" width="5000" height="5000" transform="matrix(1 0 0 1 2500 2500)"/>
</g>
<g id="aa9fb994-290c-44c7-976f-333c097a9ee0">
<g style="">
		<g id="aa9fb994-290c-44c7-976f-333c097a9ee0-child-0">
<path style="stroke: none; stroke-width: 0; stroke-dasharray: none; stroke-linecap: butt; stroke-dashoffset: 0; stroke-linejoin: miter; stroke-miterlimit: 4; fill: rgb(200,149,59); fill-rule: nonzero; opacity: 1;" d="M0,2500.00009c0,-1380.71192 1119.28817,-2500.00009 2500.00009,-2500.00009c1380.71192,0 2500.00009,1119.28817 2500.00009,2500.00009c0,1380.71192 -1119.28817,2500.00009 -2500.00009,2500.00009c-1380.71192,0 -2500.00009,-1119.28817 -2500.00009,-2500.00009z" stroke-linecap="round"/>
</g>
</g>
</g>
<g id="6e5cb433-4654-4287-a587-cebd35b9fbb7">
<g style="">
		<g id="6e5cb433-4654-4287-a587-cebd35b9fbb7-child-0">
<path style="stroke: none; stroke-width: 6.782784; stroke-dasharray: none; stroke-linecap: butt; stroke-dashoffset: 0; stroke-linejoin: miter; stroke-miterlimit: 4; fill: rgb(252,245,231); fill-rule: nonzero; opacity: 1;" vector-effect="non-scaling-stroke" transform="matrix(1.154588 0 0 1.154588 2500.000793 2500.001028) matrix(1 0 0 1 0 0)  translate(-10721.281954, -13307.581379)" d="M9824.42332,14684.85361c-84.20447,-42.04805 -233.64844,-142.18309 -241.01768,-161.58155c-4.11811,-10.51201 37.17134,-178.05398 111.73077,-453.75047c21.1324,-78.35242 29.8021,-81.0617 70.76643,-22.21611c98.94296,142.18309 191.27527,223.13642 308.85809,270.27792c269.19421,108.15452 467.1885,12.67944 549.55066,-264.96773c49.09218,-165.26617 103.49455,-382.44218 98.07599,-391.11188c-3.35951,-5.41856 -108.15452,-9.86178 -232.99821,-9.86178c-124.84369,0 -226.92942,-2.81765 -226.92942,-6.17716c0,-3.35951 11.7041,-53.31866 25.90073,-111.08054c14.30501,-57.65351 28.93513,-118.23304 32.72812,-134.48873l6.71902,-29.58535l240.90931,-2.92602l241.01768,-2.92602l40.96434,-151.71976c22.43285,-83.44587 62.2051,-232.13124 88.32258,-330.53234c26.11747,-98.4011 70.33295,-263.66728 98.07599,-367.37857c35.65414,-132.64642 46.92476,-190.73342 38.36343,-196.04361c-6.82739,-4.11811 -81.49519,-25.79236 -166.13314,-48.11684c-84.52958,-22.32448 -177.51212,-48.00847 -206.55562,-57.22003l-52.66843,-16.5808l6.06879,-44.75733c7.47762,-54.18563 87.34724,-339.85227 98.07599,-350.58103c8.12784,-8.12784 53.75214,2.70928 353.50705,83.77098c104.25315,28.2849 286.53361,77.37708 404.87503,109.23823c119.5335,32.07789 217.71786,64.04741 220.64389,71.85015c4.87671,12.67944 -17.12266,102.9527 -99.70156,409.42662c-109.45497,406.60897 -233.21495,875.42304 -233.21495,883.876c0,6.06879 92.7658,10.1869 226.92942,10.1869c124.84369,0 229.09684,3.68462 231.80613,8.12784c2.60091,4.44322 -9.75341,67.84041 -27.5263,140.88264l-32.18626,132.75479h-236.7912c-130.26225,0 -239.067,3.68462 -241.88465,8.23622c-2.81765,4.55159 -39.98899,137.41476 -82.47053,295.31168c-85.83004,317.96128 -134.70548,438.36175 -222.37783,547.16649c-125.49392,155.83787 -254.02223,241.55954 -428.28322,285.55827c-97.42576,24.60028 -249.90413,34.78717 -346.78803,23.19145c-124.84369,-14.95523 -299.32142,-67.84041 -416.36238,-126.25252z" stroke-linecap="round"/>
</g>
</g>
</g>

  </svg>