<?xml version="1.0" encoding="UTF-8"?>
<svg xmlns="http://www.w3.org/2000/svg" version="1.1" viewBox="0 0 115 90">
  <defs>
    <style>
      .cls-1 {
        fill: #fc4516;
      }
    </style>
  </defs>
  <!-- Generator: Adobe Illustrator 28.6.0, SVG Export Plug-In . SVG Version: 1.2.0 Build 709)  -->
  <g>
    <g id="Layer_1">
      <g>
        <path class="cls-1" d="M95.5,80.3c1.2.4,2.1.6,2.8.6s1.1-.7,2.1-2.2,2-3.2,2.9-5.2c.9-1.9,1.4-3.4,1.4-4.5v-16.4c0-.5-.4-1-.9-1.6s-1.1-1-1.7-1.2l-4.2,2.4v.9c1.1.2,1.7,1.2,1.7,2.8v12.7c-1.2,0-2.1-.3-2.7-1-.6-.6-.9-1.9-.9-3.9v-11.2c0-.5-.3-1-.9-1.6-.5-.6-1.1-1-1.7-1.2l-4.5,2.6v.9c1.4.3,2,1.2,2.1,2.7v11.4c0,1.4.4,2.6,1.1,3.7s1.5,1.6,2.3,1.6,2.3-.7,5.4-2.2c-.9,2-2,3.7-3.4,4.9-1.4,1.2-2.6,1.9-3.7,1.9h-1.4v1.2l1.2.6c.8.4,1.8.8,3,1.2h0ZM92.5,54.1c-.2-.4-.4-.8-.7-1.2l1.7-1c0,0,.3.2.4.4.2.3.3.4.3.4v1.4c-.6,0-1.1,0-1.7,0ZM92.8,56v-.7h1.4v3.2h-1.3v-2.5h0ZM92.9,59.7h1.3v3.2h-1.3v-3.2ZM92.9,64.1h1.3c0,1.3.2,2.4.5,3.2h-1.8v-3.2ZM94.4,70.8c-.2,0-.4-.3-.7-.7-.3-.5-.5-1-.6-1.6h2.2c0,.2.2.3.4.5.3.3.7.6,1.1.9-1.5.7-2.2.9-2.4,1h0ZM103,69c0,.4,0,1.2-.7,2.6h-1c0-.2.2-.3.2-.5l1.2-2.7h.3v.6ZM103,66.9l-.6.3h-.7v-3.2h1.3s0,2.9,0,2.9ZM102.9,62.8h-1.3v-3.2h1.3v3.2ZM102.9,58.4h-1.3v-3.2h1.4v3.2h0ZM102.2,51.9c0,0,.3.2.4.4.2.2.3.4.3.4v1.3h-1.6c-.2-.5-.4-.9-.6-1.2,0,0,1.5-.9,1.5-.9ZM100.6,72.9h1.1c-.6,1.2-1.1,2.2-1.7,3.2h-1.8c.9-.9,1.7-2,2.4-3.2ZM96.9,77.3h2.3c0,0-.2.2-.2.4-.6.8-.9,1.2-1.1,1.4-.4,0-.9-.2-1.7-.5-.3,0-.5-.2-.8-.3.5-.3,1-.6,1.5-1Z"/>
        <path class="cls-1" d="M88.5,71.2v-.9c-1.1-.2-1.7-1.2-1.7-2.8l-.2-22.9c0-.5-.3-1-.8-1.6s-1.1-1-1.7-1.2l-4.2,2.4v.9c1.1.2,1.7,1.2,1.7,2.8l.2,22.9c0,.5.3,1,.8,1.6s1.1,1,1.7,1.2c0,0,4.2-2.4,4.2-2.4ZM82.6,44.7l1.5-.9c0,0,.3.2.4.4.2.2.3.4.3.4v.7h-1.9c0-.2-.2-.4-.4-.6h0ZM83.5,47.9c0-.5,0-1,0-1.4h1.5v3.2h-1.3v-1.8h0ZM83.5,50.9h1.4v3.2h-1.3v-3.2h0ZM83.5,55.3h1.4v3.2h-1.3v-3.2h0ZM83.6,59.7h1.4v3.2h-1.3v-3.2h0ZM83.6,64.1h1.4v3.2h-1.3v-3.2h0ZM83.9,71.1c-.2-.2-.3-.4-.3-.4h0v-2.2h1.4c0,.9.4,1.5.8,2l-1.5.9c0,0-.3-.2-.4-.4h0Z"/>
        <path class="cls-1" d="M70.3,71.1v-.9c-.7-.2-1.2-.4-1.5-.8s-.5-1.1-.5-2.1v-11.7c0-1.3-.5-2.5-1.4-3.7-.8-1.2-1.7-1.8-2.6-1.8s-2.9.8-7.2,2.3v1.2c2.4,0,4,.3,4.8.9.8.6,1.3,1.7,1.3,3.3l-2.2.7c-1.4.4-2.9,1-4.3,1.7-1.4.7-2.1,1.3-2.1,1.7v6.8c0,1.2.5,2.2,1.3,3.1.3.4.7.7,1.1,1,.4.3.7.5.9.6.2,0,.3.2.4.2l5.2-2.8c0,.5.3,1,.8,1.5.5.6,1.1,1,1.7,1.2l4.5-2.6-.2.2ZM56.3,62.5c.2,0,.5-.3,1.1-.6.2,0,.5-.2.7-.3-.2.5-.3,1-.4,1.5h-1.4s0-.6,0-.6ZM56.4,64.3h1.4v3.3h-1.4v-3.2h0ZM58.2,71.6s0,0-.2-.2c-.3-.3-.6-.5-.8-.8-.5-.6-.8-1.2-.8-1.9h1.6c.2.6.5,1.1.9,1.5.2.3.5.5.7.6l-1.4.7h0ZM61.6,69.7c-.5,0-1-.2-1.4-.7s-.7-1-.7-1.8v-2.7c0-1.6.3-2.8,1-3.4.4-.4.8-.6,1.1-.8s.9-.4,1.5-.6v9.3c-.5.4-1.1.6-1.6.6h.1ZM64,54.2c-.3-.4-.6-.8-1-1.1-.3-.2-.6-.4-.9-.5,1.5-.5,2.1-.6,2.3-.7.2,0,.6.3,1.1,1,.3.4.5.9.7,1.3h-2.2ZM65,57.1h0c0-.6-.2-1.2-.4-1.7h1.8v3.2h-1.3v-1.5h0ZM65,59.9h1.4v3.2h-1.3v-3.2h0ZM65,64.3h1.4v3.2h-1.4v-3.2ZM65.1,70.8v-2.1h1.5c0,.8.4,1.4.8,1.9h0l-1.7.9c0,0-.3-.2-.4-.4-.2-.2-.3-.4-.3-.4h0Z"/>
        <path class="cls-1" d="M49,42.9c-.7-.7-1.3-1-1.8-1,0,0-.9.4-2.5,1.2s-2.5,1.3-2.5,1.3c0-.6-.5-1.2-1.2-1.7-.6-.5-1.1-.8-1.3-.8,0,0-1.5.8-4.5,2.5v.9c1.4.3,2,1.2,2.1,2.7v21.4c-.3.2-.7.3-1.1.3-1.6,0-2.4-1.3-2.5-3.9v-21.1c0-.5-.4-1-.9-1.5-.5-.6-1.1-1-1.7-1.2l-4.5,2.6v.9c1.4.3,2,1.2,2.1,2.7v20.8c.1,1,.5,2.1,1.3,3.2.8,1.2,1.6,1.7,2.4,1.7s2.7-.9,5.7-2.6c.9,1.7,1.9,2.6,3.2,2.5.7,0,2.5-.6,5.5-1.8,3-1.2,4.4-1.9,4.4-2.1v-21.9c-.2-2.1-.8-3.8-2.1-5.1h-.1ZM29.7,45.6c-.1-.2-.3-.4-.4-.6l1.7-1c.1,0,.3.2.4.4.2.2.3.3.3.4v.8c-.6,0-1.3,0-2,0ZM30.4,48.1c0-.5,0-.9-.2-1.3h1.5v3.2h-1.3v-1.9ZM30.4,51.2h1.4v3.2h-1.3v-3.2h-.1ZM30.4,55.7h1.4v3.2h-1.3v-3.2h-.1ZM30.5,60.1h1.4v3.2h-1.3v-3.2h-.1ZM30.5,64.5h1.4v1.3c0,.7,0,1.3.2,1.9h-1.5v-3.2h0ZM32.2,72.1s-.3,0-.9-.9c-.6-.9-.9-1.6-.9-2.3h1.8c.5,1.3,1.3,1.9,2,2.3-1.6.8-2.1.9-2.1.9h0ZM38,45c.7-.4,1.3-.7,1.7-.9,0,0,0,0,.2,0,.2.2.5.4.5.7v.7h-2c0-.2-.3-.4-.4-.6ZM39.1,48.1h0c0-.5,0-.9-.2-1.3h1.5v3.2h-1.4v-1.9h.1ZM39.1,51.2h1.4v3.2h-1.4v-3.2ZM39.1,55.6h1.4v3.2h-1.4v-3.2ZM39.1,60h1.4v3.2h-1.4v-3.2ZM39.2,64.4h1.4v1.8c0,.5,0,1,.2,1.5h-1.5v-3.2h-.1ZM41.2,72h0c-.5,0-1.1-.5-1.6-1.6l-.4-.7v-.9h1.9c0,.2,0,.4.2.6.5,1,1.2,1.7,2.1,2-1.6.6-2.1.6-2.2.6ZM44.4,69.8c-.6,0-1.1-.4-1.4-1.1-.3-.8-.5-1.6-.5-2.5v-20.3c1.2,0,2.1.3,2.7.8.6.5.9,1.4.9,2.9v19.9c-.4.2-1,.4-1.6.4h-.1ZM46.5,45.5l-.3-.3c-.2-.2-.4-.3-.7-.5h0c.9-.4,1.5-.7,1.8-.9,0,0,.2.2.4.3.4.4.7.8.9,1.3h-2.1ZM47.8,49.5c0-1.1-.2-2-.5-2.8h1.7c0,.4,0,.8,0,1.3v1.9h-1.4v-.4h.1ZM47.8,51.1h1.4v3.2h-1.4v-3.2ZM47.8,55.5h1.4v3.2h-1.4v-3.2ZM47.8,60h1.4v3.2h-1.4v-3.2ZM47.9,64.4h1.4v3.2h-1.4v-3.2ZM47.9,69.6v-.8h1.4v.2c-.3,0-.7.3-1.4.6Z"/>
        <path class="cls-1" d="M79.2,71.2v-.9c-1.1-.2-1.7-1.2-1.7-2.8l-.2-22.9c0-.5-.3-1-.8-1.6s-1.1-1-1.7-1.2l-4.2,2.4v.9c1.1.2,1.7,1.2,1.7,2.8l.2,22.9c0,.5.3,1,.8,1.6s1.1,1,1.7,1.2c0,0,4.2-2.4,4.2-2.4ZM73.3,44.7l1.5-.9c0,0,.3.2.4.4.2.2.3.4.3.4v.7h-1.9c0-.2-.2-.4-.4-.6h0ZM74.2,47.9c0-.5,0-1,0-1.4h1.5v3.2h-1.3v-1.8h0ZM74.2,51h1.4v3.2h-1.3v-3.2h0ZM74.3,55.4h1.4v3.2h-1.3v-3.2h0ZM74.3,59.8h1.4v3.2h-1.3v-3.2h0ZM74.3,64.2h1.4v3.2h-1.3v-3.2h0ZM74.4,70.8h0v-2.2h1.4c0,.9.4,1.5.8,2l-1.5.9c0,0-.3-.2-.4-.4-.2-.2-.3-.4-.3-.4h0Z"/>
        <path class="cls-1" d="M20.1,12c.2-.2.3-.3.4-.3l-.7-1.3c-2.8,1.7-6,3.5-9.6,5.4v1.2c2.4,0,3.7.5,3.7,1.6v19.1c.1,3.1,0,5.2-.4,6.5s-1,1.9-2,1.9h-1.4v1.2l1.1.6c.8.4,1.7.8,2.8,1.2s2,.6,2.7.6.8-.5,1.1-1.5c.4-1,.7-2.4.9-4.3.2-1.9.4-3.9.3-6v-21.7c-.2-1.1,0-2,.3-2.8s.6-1.2.7-1.4h.1ZM17.3,36h-1.4v-3.2h1.3v3.2h.1ZM17.3,31.6h-1.4v-3.2h1.3v3.2h.1ZM17.2,27.2h-1.4v-3.2h1.3v3.2h.1ZM15.8,22.8v-3.2h1.3v3.2h-1.3ZM14.1,15.7c.3-.2.7-.4,1-.6h2.1v3.2h-1.3c0-1.1-.7-2.1-1.7-2.6h-.1ZM16.2,47.6v.2c-.3,0-.8-.2-1.4-.4-.3,0-.6-.2-.9-.3.3-.2.6-.5.9-1h1.9c-.1.7-.3,1.2-.4,1.5h-.1ZM17,43.6c0,.5-.1.9-.2,1.2h-1.5c0,0,0-.2.1-.3.2-.7.4-1.7.5-2.9h1.3c0,.7-.1,1.3-.2,2ZM17.2,40.4h-1.3v-3.2h1.4v3.2h-.1Z"/>
        <path class="cls-1" d="M39.1,39.5v-.9c-.6,0-1.1-.3-1.5-1s-.6-1.4-.6-2.4v-14c0-.5-.4-1-.9-1.6s-1.1-1-1.7-1.2l-4.2,2.4v.9c1.1.2,1.7,1.2,1.7,2.8v12.9c-.5.4-1,.6-1.6.6s-1-.2-1.4-.7c-.4-.4-.6-1-.7-1.8v-14.4c0-.5-.4-1-.9-1.6s-1.1-1-1.7-1.2l-4.5,2.6v.9c1.4.3,2,1.2,2.1,2.7v12.5c0,1.2.5,2.2,1.3,3.1.3.4.7.7,1.1,1s.7.5.9.6c.2,0,.3.2.4.2l5.2-2.8c0,.5.3,1,.8,1.5s1.1.9,1.7,1.2c2.8-1.7,4.3-2.5,4.5-2.5v.2ZM24.1,21.6l1.7-1c.1.1.3.2.4.4.2.3.3.4.3.4v1.4h-1.7c-.2-.4-.4-.8-.7-1.2ZM25.1,24.6v-.7h1.4v3.2h-1.3v-2.5h-.1ZM25.2,28.3h1.4v3.2h-1.3v-3.2h-.1ZM25.2,32.7h1.4v3h0v.3h-1.4v-3.2h0ZM27,40s-.1,0-.2-.2c-.3-.2-.5-.5-.8-.8-.5-.6-.8-1.2-.8-1.9h1.6c.2.6.5,1.1.9,1.5.2.2.5.5.7.6l-1.4.7h0ZM32.9,21.4l1.5-.9c0,.1.3.2.4.4.2.3.3.4.3.4v1.4h-1.6c-.2-.5-.4-.9-.6-1.2h0ZM33.8,24.6v-.7h1.4v3.2h-1.3v-2.5h-.1ZM33.8,28.3h1.4v3.2h-1.3v-3.2h-.1ZM33.9,32.7h1.4v3.2h-1.4s0-3.2,0-3.2ZM34.2,39.6l-.3-.3h0v-2.2h1.6c0,.5.3,1,.6,1.5,0,0,.2.3.3.4-.5.3-1.1.6-1.8,1,0,0-.3-.2-.4-.4Z"/>
        <path class="cls-1" d="M78.2,9.7c-1.1.4-1.7.7-1.7.8v2.5c0,.8.2,1.4.5,1.9s.6.7.8.7c.3,0,.9-.2,2-.7,1.1-.4,1.7-.7,1.7-.8v-3c0-.5-.2-1-.5-1.4-.3-.5-.6-.7-.8-.7s-.8.2-2,.7ZM79.2,13.3c-.2,0-.3.1-.4.2-.2,0-.3.1-.4.1h0v-2c0,0,.3-.1.5-.2.3-.1.6-.2.8-.3h0v2c0,0-.3.1-.5.2Z"/>
        <path class="cls-1" d="M84,39.4v-.9c-1.1-.2-1.7-1.2-1.7-2.8v-14.6c0-.5-.4-1-.9-1.6s-1.1-1-1.7-1.2l-4.2,2.4v.9c1.1.2,1.7,1.2,1.7,2.8v14.7c0,.5.4,1,.9,1.6s1.1,1,1.7,1.2l4.2-2.4h0ZM78.1,21.2l1.5-.9c0,.1.3.2.4.4.2.2.3.3.3.4v1.3h-1.6c-.2-.5-.4-.9-.6-1.2ZM79,24.3v-.8h1.4v3.2h-1.3v-2.4h0ZM79,28h1.4v3.2h-1.3v-3.2h0ZM79.1,32.4h1.4v3.2h-1.3v-3.2h0ZM79.1,39h0v-2.2h1.4c0,.9.4,1.5.8,2l-1.5.9c0,0-.3-.2-.4-.3-.2-.2-.3-.4-.3-.4Z"/>
        <path class="cls-1" d="M57.1,39.4v-.9c-1.4-.3-2-1.2-2.1-2.7v-12.5c0-1-.5-2-1.3-3.2s-1.6-1.7-2.5-1.7-1.6.6-3.6,1.8c-.8.4-1.2.7-1.4.8,0-.6-.2-1.1-.7-1.5s-.8-.7-1.1-.8c-.3,0-.5-.2-.7-.2-2.8,1.7-4.3,2.5-4.5,2.6v.9c.6,0,1.1.3,1.5,1s.6,1.4.6,2.4v14c0,.5.4,1,.9,1.6s1.1,1,1.7,1.2l4.2-2.4v-.9c-1.1-.2-1.7-1.2-1.7-2.8v-13.2l1.3-.3c.9,0,1.5.4,1.8,1.2.4.8.5,2,.5,3.5v12c0,.5.3,1,.9,1.6.5.6,1.1,1,1.7,1.2l4.5-2.6h0ZM42.2,21.9c0-.1-.2-.3-.3-.4.5-.3,1.1-.7,1.9-1.1,0,0,.2.2.4.3,0,.1,0,.2,0,.2v1.6h-1.8c0-.2-.2-.5-.3-.7h0ZM43.1,25.2c0-.5,0-1-.2-1.4h1.5v3.2h-1.3v-1.8ZM43.1,28.2h1.4v3.2h-1.3v-3.2h-.1ZM43.1,32.6h1.4v3.2h-1.3v-3.2h-.1ZM43.9,39.9c0,0-.3-.2-.4-.4-.2-.2-.3-.4-.3-.4v-2.1h1.4c0,.9.4,1.6.8,2l-1.5.9ZM49.6,21.1c1.1-.6,1.6-.8,1.8-.9.2,0,.5.3.9.9.3.5.6,1,.7,1.4h-2.1c-.3-.6-.8-1.1-1.3-1.4ZM51.4,23.7h1.7v3.2h-1.3c0-1.3,0-2.3-.4-3.2ZM51.8,28.2h1.3v3.2h-1.3v-3.2ZM51.8,32.6h1.3v3.2h-1.3v-3.2ZM51.9,39.2h0v-2.2h1.4c.2.8.5,1.4.9,2l-1.7,1c0,0-.3-.2-.4-.4-.2-.2-.3-.4-.3-.4h0Z"/>
        <path class="cls-1" d="M99.3,20.5c-.5-.8-1.1-1.4-1.7-1.8s-.9-.6-1-.6c-.5,0-2.3.6-5.4,1.8-3.1,1.2-4.7,1.9-4.7,2.1v13.9c0,1.6.5,2.9,1.4,4.1.9,1.2,1.7,1.7,2.5,1.7s2.7-.8,7.2-2.3v-1.2c-1.3,0-2.4,0-3.3-.3-1.8-.5-2.8-1.8-2.8-3.9,0,0,.8-.2,2.2-.7,1.4-.5,2.8-1.1,4.2-1.8,1.5-.7,2.2-1.3,2.2-1.8v-7c0-.7-.3-1.4-.9-2.2h.1ZM98.3,26.6h-1.4v-2c0-.4,0-.8-.2-1.2h1.5v3.2h0ZM88.3,23.5h1.4v3.2h-1.3v-3.2h0ZM88.3,27.9h1.4v3.2h-1.3v-3.2h0ZM88.3,32.3h1.4v2.2h0c0,.4,0,.7,0,1h-1.5v-3.2ZM92.7,39.2c-1.4.5-2,.6-2.3.7,0,0-.5-.3-1-1-.5-.6-.8-1.4-.9-2.2h1.9c.5,1.1,1.3,1.9,2.4,2.4h0ZM91.5,32.1v-9.6c.6-.4,1.2-.6,1.8-.6s1,.3,1.4.8.5,1.2.5,2v2.9c0,2.3-1.2,3.8-3.7,4.5ZM96.1,21.7c-.4-.5-.8-1-1.3-1.2.8-.3,1.2-.4,1.5-.5,0,0,.2.1.2.2.4.3.8.8,1.3,1.4.2.2.3.4.4.6h-1.8c0-.2-.2-.4-.3-.5ZM97.2,29.9c-.2.1-.5.2-.7.3.3-.7.4-1.5.5-2.3h1.4v1.3c-.2.1-.5.4-1.2.7Z"/>
        <path class="cls-1" d="M70.5,41.9c.7,0,2.3-.8,4.8-2.5v-1.2c-.6,0-1.2-.2-1.8-.4-1.7-.7-3.4-3.3-5.1-7.9,2.9-1.1,4.3-1.8,4.3-2.1v-4.5c0-1.2-.5-2.4-1.5-3.4-.9-1-1.8-1.5-2.6-1.5s-2,.8-4.5,2.5v-3.8c0-1.3.4-2.5,1.2-3.6.3-.4.7-.8,1.2-1.2s.9-.7,1.2-.8l-.7-1.3c-2.8,1.7-6,3.5-9.6,5.4v1.2c.6,0,1,.1,1.3.5.3.3.4.8.4,1.6v20.5c0,.5.4,1,.9,1.6s1.1,1,1.7,1.2l4.2-2.4v-.9c-1.1-.2-1.7-1.2-1.7-2.8v-4.6c.5,1.8,1.5,4,2.9,6.7,1.4,2.7,2.5,4,3.4,4v-.3ZM60.3,16c.7-.4,1.4-.8,2.1-1.1,0,0,.2-.1.3-.2v.2c-.2.7-.3,1.4-.3,2.2v1.1h-1.4c0-.9-.3-1.5-.7-2.1h0ZM61,19.2h1.3v3.2h-1.3v-3.2ZM61.1,23.7h1.3v3.2h-1.3v-3.2ZM61.1,32.5h1.3v3.2h-1.3v-3.2ZM61.8,39.8c0,0-.3-.2-.4-.4-.2-.2-.3-.4-.3-.4h0v-2.2h1.4c0,.9.4,1.6.8,2l-1.5.9h0ZM62.4,31.1h0c-.4.1-.9.1-1.3.2v-3.2h1.3v2.8h1.5l-1.5.2ZM72.4,39.1c-.9.5-1.4.8-1.7.9-.3-.3-.9-1-1.9-3h0c.5,0,.9,0,1.4,0,.8,1,1.5,1.8,2.3,2.2h-.1ZM70.9,26.8h-1.2v-1c0-.9,0-1.6-.3-2.2h1.5v3.1h0ZM68.8,20.1c.2,0,.5.3,1.1.9.4.4.7.9.8,1.4h-1.8c-.4-.8-1-1.2-1.6-1.5.8-.5,1.3-.7,1.5-.8ZM64.2,29.1v-6.6l1.3-.2c1.6,0,2.4,1.2,2.4,3.5v1.9l-.7.4c-1.4.7-2.4,1-3,1ZM66,30.6h-.3c.3,0,.7-.2,1.1-.3v.2c.2.3.3.6.4.8h-.9c0-.2-.2-.5-.2-.7h0ZM67.6,32.5c.5,1.2,1.1,2.3,1.6,3.2h-1.2c-.6-1.2-1-2.2-1.4-3.2h1Z"/>
      </g>
    </g>
  </g>
</svg>