<svg width="32" height="32" viewBox="0 0 32 32" fill="none" xmlns="http://www.w3.org/2000/svg">
<path fill-rule="evenodd" clip-rule="evenodd" d="M20.1632 3.40445C19.0016 2.69303 16.5899 1.22203 16.0981 0.945418C15.5851 0.656849 14.7941 0.373032 14.2813 0.189059C14.0253 0.097204 13.8387 0.0302389 13.7906 0C14.0598 0.269204 14.5277 0.977466 14.72 1.41012C14.896 1.80595 14.9869 2.36273 15.0421 2.70006L15.0421 2.70009V2.7001L15.0565 2.78818C15.0637 2.91856 15.0708 3.05323 15.078 3.19108C14.6427 3.22358 13.8607 3.59774 12.9179 4.04881C12.3584 4.31651 11.7423 4.61129 11.1085 4.87783C9.03878 4.19642 7.25478 4.20151 5.73236 4.20585C5.20987 4.20734 4.71818 4.20874 4.25634 4.18227C4.46465 4.26774 4.99024 4.54442 5.42609 4.96745C5.97091 5.49624 6.83621 6.40961 7.18874 6.85829C7.25676 6.94486 7.33764 7.05119 7.42572 7.16698L7.42586 7.16717L7.42587 7.16718C7.57739 7.36638 7.75019 7.59355 7.91544 7.79631C7.48596 7.98029 6.87724 8.12419 5.98698 8.12419C5.35884 8.12419 4.4006 7.85712 4 7.72359C4.27241 7.89985 5.45819 8.31648 6.43565 8.31648C7.2058 8.31648 7.92517 8.19213 8.20188 8.12714C8.202 8.12726 8.20211 8.12738 8.20222 8.1275C7.50449 8.31929 7.09007 8.56321 6.64397 8.98949L6.59418 9.03694C6.14557 9.46399 5.48939 10.0886 5.04156 11.6174C4.84696 12.2818 4.92939 14.4537 5.37807 14.8543C5.37807 11.0566 7.09264 9.53431 8.26239 8.68503C5.98698 11.1848 5.93891 13.0916 5.93891 14.8543C5.93891 16.2644 6.441 17.2472 6.69204 17.5623C6.35553 16.5849 6.35553 15.9824 6.35553 15.4952C6.35553 15.0081 6.56919 14.4804 6.67601 14.2774C6.66533 14.3842 6.64397 14.6876 6.64397 15.0466C6.64397 15.8029 6.94308 16.5048 7.09264 16.7611C7.09264 17.1457 7.33834 17.5944 7.46119 17.7707C7.44517 17.7386 7.41312 17.6104 7.41312 17.354C7.41312 17.0977 7.4879 16.7344 7.52529 16.5849C7.52529 17.2901 7.64033 17.5359 7.6941 17.6508C7.70484 17.6737 7.71313 17.6914 7.71758 17.7066C7.71758 17.6755 7.70589 17.6452 7.69005 17.604C7.65684 17.5177 7.60541 17.3841 7.60541 17.0977C7.60541 16.974 7.67993 16.7714 7.80089 16.5229L7.78166 16.7131C7.78166 17.2629 8.02723 17.5894 8.25912 17.8978C8.46652 18.1736 8.66298 18.4348 8.66298 18.8282C8.66298 19.3528 8.07228 19.8203 7.63468 20.1666C7.37721 20.3703 7.17274 20.5321 7.17274 20.639C7.17274 20.9274 7.60539 21.8408 7.78166 21.8408C7.62142 21.8408 8.32647 23.4912 8.88731 23.4912C8.88197 23.5874 8.98025 23.8309 9.41611 24.0361C9.64635 24.1444 9.76785 24.3701 9.89912 24.6139C10.0785 24.9471 10.2761 25.3142 10.7942 25.4622C11.8459 25.7627 12.6972 25.4371 13.4461 25.1507C13.8952 24.9789 14.3075 24.8212 14.704 24.8212C15.3076 25.334 16.5148 26.7762 16.5148 28.4427C16.5148 29.1736 16.0408 29.5629 15.5042 30.0035L15.5042 30.0036C15.3938 30.0942 15.2808 30.187 15.1687 30.2854C15.0713 30.371 14.9539 30.4599 14.8292 30.5543L14.8292 30.5543C14.3551 30.9134 13.7746 31.3529 13.7746 32H16.1142C17.35 32 17.9277 31.0997 18.6109 30.0348C19.1147 29.2495 19.6759 28.3748 20.6009 27.7056C21.1052 27.3316 21.6584 27.0628 22.1187 26.8391C22.6997 26.5568 23.1327 26.3464 23.1327 26.0871C23.1327 25.8083 22.8494 25.6171 22.4802 25.368C22.1011 25.1122 21.6314 24.7953 21.2846 24.2594C21.2304 24.0844 21.2021 23.8401 21.1938 23.7156C21.2835 24.2412 21.9629 24.677 22.2995 24.677L22.27 24.6403C22.0865 24.4119 21.8989 24.1783 21.8989 23.8438C21.8989 23.2279 21.9629 23.0693 22.1072 22.9624C22.0943 23.5778 22.3048 23.8812 22.4116 23.9559C22.2193 23.5842 22.2567 23.1173 22.2995 22.9304C22.402 23.2124 22.6627 23.4752 22.7802 23.5714C23.1391 23.8662 23.5386 23.972 23.6935 23.988C23.48 23.8741 23.3297 23.7096 23.1639 23.5282C23.1431 23.5055 23.1221 23.4824 23.1007 23.4592C22.9468 23.2925 22.8977 23.0372 22.8923 22.9304C23.0077 23.174 23.2502 23.3844 23.357 23.4592C23.7673 23.754 24.5642 23.9346 24.9114 23.988C24.3666 23.7476 23.8217 23.0105 23.8217 22.5138C23.8217 22.017 24.3986 21.2158 24.8473 20.7351C25.2062 20.3505 25.7873 19.5707 26.0331 19.2288C26.0117 19.3036 25.8568 19.6455 25.4081 20.4146C24.9594 21.1838 24.8259 21.7927 24.8152 22.001C24.2127 22.424 24.0194 22.8182 23.998 22.9624C24.1775 22.6548 24.5855 22.3215 24.7672 22.1933C24.7287 22.5522 24.7832 22.7702 24.8152 22.8343C24.8152 22.4369 24.9541 22.1132 25.0235 22.001C25.1945 21.8888 25.6228 21.5748 25.969 21.2158C26.8247 20.2759 27.226 18.5376 27.3772 17.8827C27.3987 17.7896 27.4152 17.7184 27.4271 17.6745C27.5031 17.396 27.5522 17.0654 27.5907 16.8062C27.6009 16.7373 27.6104 16.6734 27.6194 16.6169C27.6835 16.2163 27.7156 15.976 27.7476 15.6074C27.7725 15.3218 27.801 14.8009 27.8117 14.5979C27.9527 15.3671 27.9559 16.1362 27.9399 16.4246C27.9399 18.1552 27.1814 20.2544 26.8022 21.0876C27.7636 19.7897 28.5648 17.338 28.5648 15.6074C28.5648 14.2229 28.004 12.4026 27.8117 12.0341C27.8117 9.53208 26.2731 7.54718 25.5343 6.59402L25.5342 6.59395C25.4403 6.47274 25.3592 6.36821 25.2959 6.28143C24.8473 5.6661 23.7202 4.83926 23.2128 4.50276C23.138 4.43866 22.9116 4.23996 22.6039 3.95794C21.4662 2.9324 21.1938 2.0671 21.1938 1.84277C21.1938 1.6633 21.2152 1.45819 21.2258 1.37807C21.0976 1.71137 21.0976 1.9763 21.1137 2.0671C21.1137 3.00291 22.0003 3.86714 22.4437 4.18228C21.7083 3.82845 20.9313 3.57773 20.1632 3.40445Z" fill="white"/>
<path fill-rule="evenodd" clip-rule="evenodd" d="M11.3067 19.4532C10.5696 19.4532 10.1851 17.9469 10.1851 17.2899C10.1851 16.8733 10.1851 16.2324 10.842 16.2324C11.1728 16.2324 11.4264 16.8091 11.5967 17.4022C11.5548 17.3725 11.5012 17.354 11.4352 17.354C11.291 17.354 11.291 17.5143 11.291 17.5623C11.291 17.6104 11.339 17.8347 11.5474 17.8347C11.6136 17.8347 11.6604 17.7982 11.6863 17.7453C11.7708 18.0999 11.8235 18.4199 11.843 18.5762C11.8164 18.5734 11.7873 18.5719 11.7556 18.5719C11.5954 18.5719 11.5793 18.7321 11.5793 18.7802C11.5793 18.8282 11.5954 18.9885 11.7556 18.9885C11.7744 18.9885 11.7929 18.9871 11.8108 18.9843C11.7534 19.2072 11.6184 19.4532 11.3067 19.4532Z" fill="#F11591"/>
<path d="M7.76574 21.8408C7.46128 21.6965 7.17285 20.9114 7.17285 20.671C7.17285 20.5749 7.22092 20.5268 7.38116 20.5268C7.92598 20.5268 8.23044 20.7031 8.23044 20.7672C8.23044 20.8313 8.16634 20.9594 7.97405 21.1998C7.78176 21.4402 7.89393 21.8247 7.76574 21.8408Z" fill="#F11591"/>
</svg>
