 <svg  version="1.0" xmlns="http://www.w3.org/2000/svg"  width="500.000000pt" height="500.000000pt" viewBox="0 0 500.000000 500.000000"  preserveAspectRatio="xMidYMid meet">  <g transform="translate(0.000000,500.000000) scale(0.050000,-0.050000)" fill="#d8af78" stroke="none"> <path d="M4060 9688 c-2898 -342 -4607 -3421 -3352 -6038 1416 -2952 5507 -3254 7331 -540 1716 2553 253 5966 -2804 6543 -159 30 -1004 55 -1175 35z m940 -157 c3758 -457 4938 -5358 1794 -7450 -3006 -2001 -6978 657 -6264 4193 178 881 778 1901 1364 2319 29 20 70 57 92 82 23 25 56 45 75 45 18 0 71 27 117 61 46 33 91 56 100 50 9 -5 36 12 61 38 25 26 69 54 98 61 29 7 58 22 65 33 7 12 47 23 89 26 57 4 82 16 96 49 13 29 100 84 248 156 160 79 219 118 201 130 -16 12 -2 14 39 6 36 -7 65 -5 65 4 0 49 560 172 960 213 177 17 591 9 800 -16z m-1960 -246 c-386 -181 -497 -238 -670 -346 -110 -69 -220 -143 -245 -165 -25 -23 -50 -36 -56 -29 -7 6 36 47 94 90 194 141 377 265 392 265 9 0 32 18 51 41 19 22 44 35 55 29 11 -7 67 9 124 35 117 54 274 112 305 112 11 0 -11 -14 -50 -32z"/> <path d="M4477 9375 c-75 -60 -40 -175 53 -175 89 0 132 98 70 160 -46 46 -80 50 -123 15z"/> <path d="M4060 9340 c-68 -68 -29 -160 67 -160 91 0 126 104 56 167 -47 43 -74 42 -123 -7z"/> <path d="M4793 9343 c-43 -47 -42 -89 4 -130 69 -63 163 -18 163 78 0 82 -109 117 -167 52z"/> <path d="M5135 9318 c-40 -23 -47 -118 -11 -154 78 -78 209 33 148 126 -35 53 -79 62 -137 28z"/> <path d="M3724 9296 c-55 -55 0 -176 79 -176 38 0 97 63 97 103 0 74 -124 125 -176 73z"/> <path d="M5444 9236 c-70 -70 17 -200 107 -159 63 29 80 72 52 134 -24 54 -116 68 -159 25z"/> <path d="M3404 9216 c-36 -36 -29 -105 16 -146 83 -75 204 49 129 131 -40 44 -109 51 -145 15z"/> <path d="M5764 9136 c-52 -52 -1 -176 73 -176 32 0 103 74 103 109 0 73 -123 120 -176 67z"/> <path d="M3093 9103 c-57 -63 -14 -163 70 -163 38 0 97 63 97 103 0 81 -112 121 -167 60z"/> <path d="M6071 9009 c-17 -18 -31 -49 -31 -69 0 -20 14 -51 31 -69 18 -17 49 -31 69 -31 20 0 51 14 69 31 17 18 31 49 31 69 0 20 -14 51 -31 69 -18 17 -49 31 -69 31 -20 0 -51 -14 -69 -31z"/> <path d="M2801 8987 c-56 -40 -53 -118 8 -158 85 -56 181 37 133 128 -28 51 -91 65 -141 30z"/> <path d="M4010 8950 c-343 -55 -690 -160 -1020 -309 -198 -90 -232 -102 -252 -90 -10 6 -24 -3 -31 -21 -7 -18 -25 -28 -40 -22 -15 6 -27 2 -27 -8 0 -10 -29 -34 -65 -52 -36 -19 -80 -51 -97 -71 -18 -20 -41 -37 -52 -37 -11 0 -43 -27 -73 -60 -29 -33 -63 -60 -74 -60 -12 0 -16 -8 -10 -18 6 -10 -16 -28 -49 -39 -33 -12 -58 -28 -56 -37 3 -9 -42 -65 -100 -126 -173 -182 -178 -188 -313 -372 -71 -98 -139 -190 -152 -204 -104 -120 -367 -712 -448 -1009 -774 -2840 2065 -5321 4765 -4165 2300 986 2854 4018 1051 5750 -783 753 -1914 1116 -2957 950z m662 -105 c18 -18 28 -20 28 -5 0 65 607 -32 959 -153 1926 -661 2828 -2878 1920 -4717 -1161 -2350 -4449 -2554 -5892 -365 -1385 2101 -80 4930 2423 5253 216 28 529 21 562 -13z"/> <path d="M5122 7775 c-14 -41 -33 -75 -42 -75 -10 0 -23 -18 -30 -40 -7 -22 -21 -35 -31 -29 -10 6 -13 -4 -5 -24 11 -29 30 -16 110 73 97 109 120 153 67 133 -15 -6 -32 0 -36 13 -5 13 -20 -10 -33 -51z"/> <path d="M5262 7700 c51 -90 163 -208 121 -127 -17 34 -17 46 2 54 19 8 19 14 -3 29 -15 11 -21 30 -13 42 8 14 -6 22 -38 22 -29 0 -57 14 -64 30 -6 17 -20 30 -30 30 -11 0 1 -36 25 -80z"/> <path d="M4900 7360 c0 -11 -10 -18 -23 -15 -32 7 -596 -646 -597 -690 0 -19 3 -35 7 -35 29 0 133 47 133 61 0 9 19 22 43 30 33 10 36 17 15 31 -23 14 -22 17 3 18 17 0 58 37 90 82 33 45 75 100 95 121 19 21 30 47 24 57 -6 10 8 28 31 41 24 12 37 34 31 51 -6 16 2 28 20 28 17 0 25 9 19 19 -7 10 6 29 28 41 23 12 41 38 41 59 0 21 24 57 53 80 38 30 44 41 20 41 -18 0 -33 -9 -33 -20z"/> <path d="M5610 7300 c-7 -11 -4 -20 5 -20 10 0 18 -14 18 -31 0 -17 -11 -26 -25 -21 -16 6 -22 -1 -15 -18 7 -20 -23 -44 -99 -77 -60 -27 -115 -58 -121 -69 -7 -11 -30 -16 -51 -10 -26 7 -42 -3 -51 -31 -8 -25 -24 -37 -42 -30 -16 6 -34 -3 -41 -21 -7 -19 -35 -32 -70 -32 -36 0 -58 -10 -58 -28 0 -15 -14 -33 -31 -40 -20 -7 -27 -3 -19 13 7 14 0 9 -16 -10 -16 -19 -39 -35 -51 -35 -13 0 -23 -11 -23 -23 0 -13 -6 -18 -12 -11 -7 7 -26 -1 -43 -18 -17 -17 -43 -25 -59 -19 -15 6 -47 -7 -71 -29 -23 -22 -53 -40 -67 -40 -13 0 -29 -13 -35 -29 -6 -16 -43 -35 -82 -42 -39 -7 -71 -21 -71 -31 0 -10 -13 -18 -30 -18 -16 0 -30 -11 -31 -25 0 -14 -31 -47 -69 -75 -38 -27 -69 -61 -69 -75 -1 -14 -9 -25 -19 -25 -10 0 -19 176 -20 394 -1 217 -10 402 -20 412 -49 49 -62 -20 -62 -326 l0 -319 -57 -65 c-41 -48 -62 -101 -78 -196 -24 -155 -24 -156 52 -102 75 53 83 53 83 -5 0 -35 -19 -56 -78 -82 -83 -37 -83 -37 -113 -256 -15 -109 -9 -112 104 -47 l83 48 2 -173 c1 -156 -2 -169 -29 -134 -35 47 -37 79 -5 130 38 61 3 72 -89 28 -81 -39 -84 -45 -105 -174 -25 -153 -25 -154 129 -93 l101 39 0 -46 c0 -41 -17 -52 -127 -81 l-127 -35 -23 -162 c-13 -89 -19 -165 -15 -170 9 -8 217 30 266 49 20 8 26 -38 26 -202 0 -117 -7 -212 -16 -212 -26 0 -156 118 -131 119 13 1 21 17 18 36 -4 19 22 65 56 101 l63 67 -130 -13 c-71 -7 -140 -16 -152 -20 -12 -3 -28 -69 -35 -145 -7 -76 -18 -167 -26 -203 -12 -60 -9 -63 35 -54 27 5 109 15 183 21 l135 12 0 -302 0 -301 -365 11 c-436 14 -784 42 -1015 82 -93 16 -177 29 -185 29 -8 0 -15 41 -15 90 0 76 -6 90 -39 90 -48 0 -53 8 -69 120 l-13 90 533 -7 c513 -7 533 -6 519 30 -37 89 -54 205 -44 303 9 93 6 105 -23 96 -45 -14 -226 -42 -604 -94 -170 -23 -319 -52 -330 -63 -14 -14 -12 -16 5 -7 14 8 25 5 25 -7 0 -11 20 -21 45 -21 36 -1 39 -4 15 -20 -21 -13 9 -18 95 -15 105 4 181 32 100 36 -14 1 -7 9 15 18 22 9 72 11 110 6 97 -14 122 -13 188 5 42 11 54 9 44 -7 -22 -36 11 -27 38 10 15 21 34 27 51 17 20 -13 18 -20 -12 -32 -33 -13 -30 -15 16 -17 99 -2 64 -53 -40 -58 -52 -3 -104 -14 -114 -24 -10 -11 -37 -18 -60 -17 -35 2 -34 4 9 18 34 11 -4 16 -115 16 -104 0 -160 -8 -152 -20 7 -12 -6 -11 -29 2 -62 33 -151 27 -188 -13 -102 -108 -99 -109 -137 82 -29 147 -83 125 514 206 603 82 537 58 485 176 -28 64 -39 124 -35 184 7 81 4 88 -33 78 -22 -6 -202 -52 -400 -102 -198 -50 -403 -105 -456 -122 l-97 -31 51 -27 c34 -17 88 -22 162 -15 76 8 110 4 110 -11 0 -13 -33 -23 -80 -23 -44 0 -80 -9 -80 -20 0 -11 -17 -20 -39 -20 -21 0 -56 -23 -78 -51 -48 -61 -53 -54 -83 108 -28 157 -93 122 502 267 279 69 510 125 512 126 3 1 -18 47 -46 101 -31 62 -48 125 -45 169 4 53 -2 68 -24 61 -553 -167 -919 -307 -878 -336 35 -25 52 -26 82 -8 27 17 37 17 37 1 0 -12 13 -17 29 -11 17 6 35 2 42 -8 7 -11 5 -19 -5 -17 -39 7 -134 -6 -111 -15 28 -12 35 -50 7 -42 -21 6 -102 -82 -102 -112 0 -64 -39 35 -58 149 -28 169 -28 178 9 178 17 0 224 63 459 140 235 77 442 140 459 140 41 0 40 8 -22 101 -33 49 -57 118 -63 179 -5 55 -11 100 -14 100 -2 0 -134 -62 -293 -138 -159 -76 -350 -166 -425 -200 -147 -66 -163 -137 -27 -117 31 5 61 1 67 -8 6 -10 -13 -17 -42 -17 -29 0 -48 -7 -43 -15 5 -8 -12 -45 -37 -81 -54 -78 -59 -73 -88 85 -27 148 -27 171 0 171 12 0 176 71 365 158 189 87 378 173 421 190 l77 32 -50 40 c-60 47 -115 156 -115 228 0 64 -10 64 -99 4 -39 -27 -198 -129 -354 -227 -287 -180 -320 -223 -172 -226 30 0 29 -5 -9 -37 -24 -20 -50 -60 -57 -89 -22 -86 -43 -61 -67 74 -28 163 -28 189 5 197 14 3 180 100 367 215 l341 210 -106 106 c-65 65 -123 148 -151 215 -25 61 -52 110 -59 110 -33 0 -464 -523 -446 -541 23 -23 165 21 166 51 0 11 19 21 41 22 44 3 83 28 43 28 -12 0 -3 22 20 49 24 27 51 45 60 39 9 -6 17 7 17 29 0 29 10 37 40 29 22 -6 40 -19 40 -30 0 -10 8 -13 19 -7 10 6 25 1 33 -12 9 -14 6 -18 -9 -9 -34 21 -28 -6 9 -43 35 -35 -16 -72 -77 -58 -14 4 -18 3 -10 -2 30 -17 -161 -165 -213 -165 -15 0 -38 -13 -52 -30 -14 -16 -18 -30 -9 -30 9 0 -2 -20 -25 -45 -22 -25 -50 -63 -63 -85 -12 -22 -22 -31 -23 -20 -5 119 -122 681 -147 706 -56 56 -61 -21 -16 -269 l42 -232 -117 -132 c-107 -122 -118 -143 -128 -250 -13 -136 -15 -136 168 -12 67 46 123 80 126 76 12 -17 53 -283 45 -291 -29 -29 -92 76 -69 113 43 69 2 66 -134 -10 -140 -78 -170 -120 -170 -240 0 -85 -15 -87 202 22 100 50 184 89 187 85 9 -12 110 -624 104 -630 -3 -3 -51 16 -105 44 -84 43 -98 59 -46 53 7 0 22 21 35 48 12 27 17 49 11 49 -15 0 -416 -124 -424 -131 -7 -6 -41 -237 -36 -243 2 -2 132 31 289 73 191 50 289 68 293 53 21 -66 42 -255 30 -262 -8 -5 -38 12 -66 38 -33 31 -55 40 -61 25 -6 -13 -11 -10 -11 8 -1 17 9 42 22 55 50 50 -14 49 -252 -8 l-248 -58 -12 -88 c-7 -49 -9 -92 -4 -96 6 -6 526 59 640 80 21 4 48 -127 50 -236 1 -54 -2 -57 -26 -25 -14 19 -41 35 -59 35 -18 0 -51 18 -73 40 -40 40 -54 71 -24 53 9 -6 29 -2 45 8 42 27 -27 24 -310 -11 -249 -31 -270 -42 -271 -135 l0 -54 374 -6 375 -5 15 -89 c19 -110 43 -105 -214 -49 -121 26 -227 47 -235 47 -8 1 -15 -44 -15 -99 0 -99 1 -101 283 -430 l283 -330 2000 5 2001 5 244 417 c290 494 256 458 474 503 97 19 180 41 184 49 5 7 27 61 50 120 l42 106 -45 -12 c-25 -7 -315 -63 -643 -125 -574 -108 -603 -115 -716 -188 -325 -211 -952 -370 -1617 -412 l-210 -13 0 291 0 292 120 11 c104 10 732 53 1930 133 372 25 351 20 321 77 -13 23 -34 120 -48 215 -27 187 -72 251 -73 103 0 -130 -7 -177 -24 -177 -9 0 -16 -22 -16 -50 0 -50 -1 -50 -195 -51 -375 -3 -462 -8 -451 -25 6 -10 -15 -13 -48 -5 -32 7 -211 2 -397 -11 -186 -13 -431 -23 -544 -23 -113 0 -205 -5 -205 -12 0 -7 -61 -16 -135 -19 -115 -5 -142 -13 -180 -56 l-45 -50 -2 46 c-1 25 -3 127 -4 225 l-2 180 389 66 c1175 199 1816 305 1850 305 82 1 98 31 52 96 -59 82 -123 237 -123 297 0 27 -8 44 -18 38 -23 -14 -6 -239 19 -247 40 -15 -57 -82 -125 -87 -41 -3 -70 -10 -67 -16 4 -6 -5 -22 -20 -35 -18 -18 -28 -18 -33 -3 -6 16 -22 15 -55 -3 -28 -15 -139 -27 -272 -30 -123 -3 -243 -16 -268 -29 -24 -13 -57 -19 -72 -13 -15 5 -32 3 -38 -6 -5 -9 -63 -22 -127 -28 -65 -7 -134 -19 -154 -27 -27 -10 -32 -7 -21 12 12 19 7 20 -23 4 -22 -12 -92 -27 -156 -34 -63 -6 -134 -19 -158 -27 -23 -8 -82 -17 -132 -20 -49 -3 -94 -13 -100 -21 -5 -9 -28 -15 -50 -15 -120 3 -173 -10 -221 -56 -77 -71 -90 -49 -85 151 l3 178 62 20 c233 73 1410 437 1726 533 l384 117 -47 50 c-27 28 -76 96 -111 151 -48 78 -61 89 -57 50 3 -28 12 -55 19 -60 38 -28 27 -130 -13 -124 -30 4 -33 1 -12 -13 15 -10 22 -28 15 -39 -12 -18 -42 -25 -248 -56 -47 -7 -85 -20 -85 -28 0 -16 -121 -47 -190 -49 -22 -1 -38 -11 -36 -24 3 -12 -6 -21 -20 -20 -45 5 -294 -54 -294 -70 0 -9 -13 -11 -30 -4 -16 6 -46 4 -65 -4 -83 -37 -204 -62 -210 -43 -4 11 -20 6 -36 -10 -16 -16 -50 -28 -74 -26 -48 4 -62 -21 -20 -35 21 -7 -11 -11 -190 -21 -19 -2 -35 -12 -35 -24 0 -12 -32 -20 -72 -19 -39 1 -82 -8 -95 -21 -26 -26 -38 -30 -86 -30 -18 0 -62 -31 -98 -69 -60 -64 -66 -66 -75 -29 -33 126 36 216 110 142 37 -37 87 -32 56 6 -21 25 -18 30 15 30 67 0 165 42 165 71 0 16 12 23 30 16 16 -6 25 -19 19 -29 -6 -10 -2 -18 10 -18 19 0 24 15 19 55 -1 8 -11 13 -21 10 -11 -4 -14 4 -6 16 7 12 25 17 39 12 15 -6 70 17 123 51 53 33 108 63 122 65 14 2 25 11 25 19 -3 20 130 92 169 92 20 0 26 12 17 35 -7 19 -5 29 4 21 8 -8 40 3 71 25 40 28 58 32 64 15 4 -14 13 -6 19 18 10 39 -6 35 -181 -48 -106 -49 -211 -97 -233 -106 -61 -24 -298 -133 -467 -216 -84 -41 -160 -77 -168 -81 -8 -3 -15 15 -15 40 0 51 -83 9 1120 562 237 108 489 225 560 259 72 33 153 69 180 80 l50 19 -69 59 c-38 32 -77 58 -85 58 -26 0 -18 -56 9 -67 18 -7 18 -10 -3 -11 -15 -1 -49 -25 -75 -53 -26 -28 -47 -41 -47 -29 0 23 -36 -1 -96 -65 -35 -37 -75 -48 -54 -15 7 11 -1 20 -18 20 -21 0 -26 -11 -18 -33 10 -26 5 -31 -20 -21 -18 7 -38 4 -43 -5 -6 -9 -29 -13 -51 -7 -29 8 -40 1 -40 -25 0 -20 -6 -30 -13 -22 -8 7 -32 -3 -54 -22 -28 -25 -35 -26 -23 -5 15 25 12 26 -13 5 -16 -13 -47 -27 -69 -30 -21 -3 -49 -13 -63 -22 -14 -9 -25 -6 -25 6 0 11 -9 21 -20 21 -11 0 -20 -18 -20 -40 0 -34 -13 -40 -90 -40 -49 0 -90 -9 -90 -20 0 -11 -11 -18 -25 -15 -14 3 -23 -6 -20 -20 3 -15 -15 -25 -44 -25 -27 0 -54 -9 -60 -19 -7 -11 -25 -14 -41 -8 -16 6 -43 -3 -60 -20 -17 -17 -44 -26 -61 -20 -19 7 -29 -2 -30 -26 -2 -34 -3 -34 -19 3 -14 32 -17 33 -19 7 -1 -24 -13 -30 -44 -22 -30 8 -39 4 -29 -12 9 -14 1 -23 -18 -23 -21 0 -27 -9 -17 -25 8 -15 -1 -12 -23 5 -22 17 -31 20 -23 5 11 -17 0 -25 -37 -25 -30 0 -47 -9 -40 -20 7 -11 -2 -20 -20 -20 -18 0 -27 -8 -21 -18 6 -10 -10 -23 -35 -29 -26 -7 -59 -35 -74 -63 -40 -75 -58 -27 -56 149 l2 151 489 300 c269 165 611 375 762 466 308 187 309 188 221 232 -75 37 -91 39 -108 12z m-3558 -1100 c14 -104 13 -107 -20 -75 -19 19 -42 35 -50 35 -8 0 -5 40 6 90 26 109 45 94 64 -50z m2108 -221 c0 -63 -8 -97 -20 -89 -35 22 -23 190 13 190 4 0 7 -46 7 -101z m-1440 -209 c0 -20 -20 -30 -61 -30 -52 0 -57 4 -35 29 34 39 96 39 96 1z m187 -340 c-6 -17 -34 -29 -64 -28 -39 2 -43 5 -15 12 30 8 32 14 10 28 -20 12 -13 17 26 18 41 0 52 -8 43 -30z m1253 -231 l0 -141 -50 36 c-56 41 -56 107 0 193 48 74 50 70 50 -88z m-960 -132 c0 -15 -2 -27 -5 -28 -100 -18 -395 -19 -395 -2 0 13 36 24 85 24 47 1 101 8 120 16 67 26 195 20 195 -10z m3660 -679 c0 -27 -6 -28 -29 -9 -24 20 -28 17 -21 -17 4 -23 -5 -54 -20 -70 -16 -15 -33 -51 -38 -80 -10 -54 -86 -192 -118 -214 -9 -7 -17 -18 -16 -25 5 -36 -3 -47 -59 -80 -52 -31 -57 -41 -35 -69 19 -24 20 -28 1 -17 -17 10 -25 1 -25 -27 0 -114 -91 -154 -346 -155 -129 0 -240 8 -246 18 -7 11 -23 10 -39 -4 -18 -15 -63 -18 -132 -9 -111 16 -474 20 -487 6 -15 -14 -150 8 -141 23 5 8 -3 14 -19 14 -16 0 -24 -7 -18 -16 6 -9 -9 -17 -32 -17 -29 0 -37 8 -27 25 9 16 1 14 -21 -4 -29 -23 -43 -24 -76 -3 -22 14 -34 15 -27 3 9 -13 -15 -21 -67 -21 -44 0 -85 8 -91 18 -6 10 9 14 34 10 41 -8 42 -7 5 9 -46 21 -77 10 -58 -20 10 -16 -632 -14 -742 3 -11 2 -227 -4 -480 -13 -674 -22 -989 -19 -959 10 5 5 -9 22 -31 38 -23 15 -35 38 -27 49 8 13 4 16 -10 8 -13 -8 -29 1 -37 22 -8 20 -35 52 -60 73 -26 20 -41 44 -35 54 6 10 -2 14 -18 7 -20 -7 -33 8 -42 49 -10 45 -22 58 -46 48 -20 -7 -27 -4 -18 10 8 12 5 28 -6 34 -49 31 6 71 96 69 51 0 82 -6 68 -11 -14 -6 -25 -19 -25 -29 0 -12 14 -12 37 0 30 17 47 7 93 -55 70 -92 319 -198 424 -181 42 7 67 -4 54 -25 -8 -14 -5 -18 8 -10 11 8 72 8 134 0 72 -8 103 -19 86 -30 -14 -9 -17 -17 -5 -17 12 0 32 11 45 24 13 13 24 15 24 5 0 -10 56 -21 123 -23 75 -3 130 -15 140 -30 13 -21 16 -21 17 1 0 26 84 26 403 -1 40 -3 69 1 64 9 -5 8 31 15 81 15 49 0 95 9 102 20 7 11 30 20 52 20 22 0 36 -7 31 -15 -5 -8 62 -16 148 -16 88 -1 152 6 146 16 -6 10 54 18 136 17 273 -2 297 0 297 31 0 16 9 24 20 17 12 -7 15 -21 9 -31 -6 -11 -2 -19 10 -19 11 0 21 10 21 21 0 13 17 16 40 9 22 -7 40 -4 40 8 0 22 115 55 200 58 27 1 53 12 56 23 4 12 18 15 30 7 33 -20 94 -22 82 -3 -12 19 -5 21 97 26 49 3 90 20 117 49 23 25 54 40 69 35 14 -6 37 2 50 18 13 16 40 29 60 29 20 0 39 9 43 21 3 11 26 22 50 24 24 2 39 10 33 19 -8 14 37 25 78 18 8 -1 13 9 10 23 -3 14 10 25 29 25 18 0 41 9 50 18 9 11 5 12 -9 4 -16 -9 -21 -4 -14 13 7 18 33 25 75 20 44 -5 55 -2 37 11 -34 24 46 48 108 32 25 -6 53 2 68 21 14 17 47 31 72 31 26 0 71 9 100 20 39 15 62 14 83 -3 15 -13 27 -15 25 -5 -8 40 4 48 71 48 51 0 70 -9 70 -32z"/> <path d="M4888 6591 c-669 -413 -672 -414 -524 -427 46 -4 83 6 104 27 18 18 46 28 62 22 20 -8 35 8 47 53 9 35 28 61 42 58 14 -3 36 4 50 15 14 11 32 14 41 6 9 -8 11 -5 3 8 -7 13 1 28 18 35 18 6 26 21 19 32 -7 11 6 20 29 20 22 0 41 8 41 18 0 9 27 28 60 42 33 14 60 37 60 52 0 16 20 28 45 28 36 1 39 5 16 19 -32 20 -29 22 58 46 24 6 24 10 -2 19 -18 7 -89 -24 -169 -73z"/> <path d="M5150 5677 c-66 -22 -255 -80 -420 -130 -420 -128 -456 -143 -419 -181 21 -21 48 -25 94 -14 36 8 79 17 95 20 50 8 405 139 474 175 35 18 83 33 105 33 23 0 56 18 75 39 18 21 40 34 49 29 9 -6 36 8 61 31 52 49 42 49 -114 -2z"/> <path d="M1920 5578 c-93 -42 -175 -80 -182 -83 -7 -3 -18 -55 -25 -117 l-13 -111 224 77 c123 42 227 80 230 84 14 14 -19 71 -35 61 -40 -24 -61 70 -27 121 42 64 33 62 -172 -32z"/> <path d="M4960 5068 c-214 -37 -451 -77 -525 -89 -74 -13 -135 -29 -135 -36 1 -45 205 -83 230 -43 7 11 69 20 139 20 101 0 129 7 140 34 11 30 16 31 32 5 17 -25 22 -25 39 4 20 34 69 50 196 66 37 5 78 18 92 29 14 12 42 18 63 14 22 -4 66 10 99 31 33 20 51 36 40 35 -11 -1 -195 -33 -410 -70z"/> <path d="M6364 8856 c-52 -52 -1 -176 73 -176 32 0 103 74 103 109 0 73 -123 120 -176 67z"/> <path d="M2480 8799 c-28 -51 -9 -113 43 -140 86 -46 182 88 113 157 -39 39 -132 29 -156 -17z"/> <path d="M6644 8676 c-69 -69 27 -203 113 -157 91 48 66 181 -34 181 -30 0 -66 -11 -79 -24z"/> <path d="M2211 8621 c-75 -82 46 -206 129 -131 45 41 52 110 16 146 -36 36 -105 29 -145 -15z"/> <path d="M6904 8476 c-78 -78 33 -209 126 -148 89 58 55 172 -50 172 -29 0 -63 -11 -76 -24z"/> <path d="M1948 8410 c-30 -46 -30 -54 0 -100 59 -90 172 -55 172 53 0 98 -117 130 -172 47z"/> <path d="M7153 8243 c-43 -47 -42 -89 4 -130 66 -60 163 -13 163 80 0 86 -106 118 -167 50z"/> <path d="M1720 8200 c-88 -88 16 -218 118 -147 55 38 54 116 -2 156 -58 40 -68 39 -116 -9z"/> <path d="M7368 7990 c-30 -46 -30 -54 0 -100 58 -89 172 -55 172 50 0 105 -114 139 -172 50z"/> <path d="M1489 7939 c-34 -38 -35 -46 -8 -95 54 -96 179 -65 179 43 0 94 -104 126 -171 52z"/> <path d="M7595 7758 c-40 -23 -47 -118 -11 -154 53 -53 176 4 176 80 0 62 -105 109 -165 74z"/> <path d="M1300 7680 c-48 -48 -49 -58 -9 -116 56 -79 169 -46 169 49 0 96 -92 135 -160 67z"/> <path d="M7775 7478 c-40 -23 -47 -118 -11 -154 53 -53 176 4 176 80 0 62 -105 109 -165 74z"/> <path d="M1141 7407 c-45 -32 -54 -106 -17 -143 42 -42 127 -29 155 24 49 92 -51 179 -138 119z"/> <path d="M7908 7150 c-30 -46 -30 -54 0 -100 55 -83 172 -51 172 47 0 108 -113 143 -172 53z"/> <path d="M980 7100 c-66 -66 -23 -160 73 -160 86 0 118 106 50 167 -47 43 -74 42 -123 -7z"/> <path d="M8051 6869 c-63 -64 -26 -169 60 -169 93 0 134 95 69 160 -48 48 -86 51 -129 9z"/> <path d="M851 6789 c-80 -81 23 -204 119 -141 54 35 66 108 26 148 -34 34 -107 30 -145 -7z"/> <path d="M8151 6549 c-60 -60 -17 -169 67 -169 20 0 51 16 69 37 85 93 -46 221 -136 132z"/> <path d="M750 6453 c-35 -54 -23 -105 34 -135 85 -45 181 89 112 158 -39 39 -113 28 -146 -23z"/> <path d="M8220 6220 c-48 -48 -49 -58 -9 -116 59 -84 169 -45 169 59 0 92 -92 125 -160 57z"/> <path d="M691 6149 c-41 -42 -39 -95 6 -136 47 -43 89 -42 130 4 59 65 19 163 -67 163 -20 0 -51 -14 -69 -31z"/> <path d="M8264 5896 c-69 -69 27 -203 113 -157 22 11 46 40 53 62 27 83 -104 157 -166 95z"/> <path d="M658 5822 c-65 -52 -35 -149 49 -158 108 -13 157 103 69 165 -57 39 -62 39 -118 -7z"/> <path d="M8295 5578 c-40 -23 -47 -118 -11 -154 61 -61 156 -13 156 79 0 79 -73 117 -145 75z"/> <path d="M655 5498 c-48 -28 -46 -131 4 -157 61 -33 98 -25 133 29 60 92 -39 185 -137 128z"/> <path d="M8264 5236 c-55 -55 0 -176 79 -176 39 0 97 63 97 105 0 77 -122 125 -176 71z"/> <path d="M664 5156 c-37 -37 -28 -111 17 -143 54 -37 117 -20 144 40 39 86 -93 171 -161 103z"/> <path d="M8233 4903 c-63 -69 -30 -163 58 -163 93 0 134 95 69 160 -50 50 -84 51 -127 3z"/> <path d="M713 4823 c-43 -47 -42 -89 4 -130 93 -85 221 46 132 136 -42 41 -95 39 -136 -6z"/> <path d="M8139 4557 c-35 -65 5 -137 77 -137 67 0 104 32 104 90 0 93 -138 129 -181 47z"/> <path d="M793 4503 c-63 -69 -30 -163 58 -163 91 0 138 108 72 167 -47 43 -89 42 -130 -4z"/> <path d="M8060 4260 c-66 -66 -23 -160 73 -160 86 0 118 106 50 167 -47 43 -74 42 -123 -7z"/> <path d="M893 4183 c-43 -47 -42 -89 4 -130 93 -85 221 46 132 136 -42 41 -95 39 -136 -6z"/> <path d="M7931 3949 c-41 -42 -39 -95 6 -136 47 -43 89 -42 130 4 91 101 -39 228 -136 132z"/> <path d="M1035 3898 c-40 -23 -47 -118 -11 -154 53 -53 176 4 176 80 0 62 -105 109 -165 74z"/> <path d="M7789 3651 c-56 -56 -45 -110 32 -151 58 -31 150 61 119 119 -41 77 -95 88 -151 32z"/> <path d="M1169 3571 c-24 -37 -27 -58 -10 -88 48 -91 181 -66 181 34 0 107 -113 143 -171 54z"/> <path d="M7604 3376 c-69 -69 27 -203 113 -157 91 48 66 181 -34 181 -30 0 -66 -11 -79 -24z"/> <path d="M1364 3316 c-38 -38 -29 -124 17 -152 51 -32 112 -15 140 39 46 86 -88 182 -157 113z"/> <path d="M7404 3116 c-34 -34 -30 -107 7 -145 81 -80 204 23 141 119 -35 54 -108 66 -148 26z"/> <path d="M1564 3056 c-70 -70 17 -200 107 -159 63 29 80 72 52 134 -24 54 -116 68 -159 25z"/> <path d="M7197 2875 c-48 -39 -57 -86 -24 -133 71 -102 227 3 159 108 -36 55 -87 64 -135 25z"/> <path d="M1794 2804 c-47 -52 -42 -98 15 -135 63 -42 127 -21 144 45 26 103 -89 168 -159 90z"/> <path d="M6940 2640 c-61 -61 -50 -113 32 -156 99 -52 176 100 84 165 -58 40 -68 39 -116 -9z"/> <path d="M2044 2596 c-13 -13 -24 -49 -24 -79 0 -100 133 -125 181 -34 46 86 -88 182 -157 113z"/> <path d="M6671 2421 c-75 -82 46 -206 129 -131 45 41 52 110 16 146 -36 36 -105 29 -145 -15z"/> <path d="M2315 2398 c-46 -26 -45 -103 2 -145 47 -43 89 -42 130 4 84 92 -21 206 -132 141z"/> <path d="M6391 2241 c-69 -76 24 -188 122 -143 52 23 66 115 23 158 -36 36 -105 29 -145 -15z"/> <path d="M2581 2201 c-33 -61 -25 -98 29 -133 93 -61 204 70 126 148 -38 38 -132 29 -155 -15z"/> <path d="M6124 2109 c-56 -40 -57 -118 -2 -156 102 -71 206 59 118 147 -48 48 -58 49 -116 9z"/> <path d="M2891 2069 c-60 -60 -17 -169 67 -169 20 0 51 16 69 37 85 93 -46 221 -136 132z"/> <path d="M5788 1950 c-30 -46 -30 -54 0 -100 58 -89 172 -55 172 50 0 105 -114 139 -172 50z"/> <path d="M3200 1940 c-66 -66 -23 -160 73 -160 86 0 118 106 50 167 -47 43 -74 42 -123 -7z"/> <path d="M5495 1879 c-40 -24 -47 -119 -11 -155 37 -37 106 -29 147 17 72 80 -41 194 -136 138z"/> <path d="M3513 1843 c-44 -48 -42 -89 8 -134 90 -81 215 52 129 138 -43 43 -96 42 -137 -4z"/> <path d="M3840 1780 c-88 -88 16 -218 118 -147 55 38 54 116 -2 156 -58 40 -68 39 -116 -9z"/> <path d="M5149 1771 c-56 -85 37 -181 128 -133 51 28 65 91 30 141 -40 56 -118 53 -158 -8z"/> <path d="M4184 1749 c-84 -59 -45 -169 59 -169 92 0 125 92 57 160 -48 48 -58 49 -116 9z"/> <path d="M4831 1741 c-71 -78 6 -184 109 -151 89 28 55 190 -40 190 -19 0 -50 -18 -69 -39z"/> <path d="M4488 1710 c-30 -46 -30 -54 0 -100 58 -89 172 -55 172 50 0 105 -114 139 -172 50z"/> </g> </svg> 